<svg xmlns="http://www.w3.org/2000/svg" width="1440" height="900" viewBox="0 0 1440 900">
<defs><linearGradient id="wash" x1="0" y1="0" x2="1" y2="1"><stop stop-color="#e8ad50" stop-opacity=".17"/><stop offset="1" stop-color="#e8ad50" stop-opacity="0"/></linearGradient><marker id="arrow" markerWidth="10" markerHeight="10" refX="8" refY="5" orient="auto"><path d="M0 0L10 5L0 10Z" fill="#e8ad50"/></marker></defs>
<rect x="0" y="0" width="1440" height="900" rx="0" fill="#0a1020" stroke="none"/>
<circle cx="1340" cy="95" r="220" fill="url(#wash)"/>
<path d="M64 146H1376" stroke="#293955" stroke-width="2"/>
<rect x="64" y="48" width="52" height="52" rx="15" fill="#e8ad50" stroke="none"/>
<text x="76" y="82" fill="#0a1020" font-family="Arial,Helvetica,sans-serif" font-size="17" font-weight="800">HAR</text>
<text x="132" y="70" fill="#e8ad50" font-family="Arial,Helvetica,sans-serif" font-size="15" font-weight="750">HARNESS</text>
<text x="132" y="99" fill="#aab8d0" font-family="Arial,Helvetica,sans-serif" font-size="12" font-weight="600">FIELD GUIDE  /  VISUAL SERIES</text>
<rect x="1196" y="51" width="180" height="42" rx="20" fill="#111b30" stroke="#293955"/>
<text x="1220" y="78" fill="#f3f6ff" font-family="Arial,Helvetica,sans-serif" font-size="15" font-weight="700">01  /  10</text>
<text x="68" y="205" fill="#e8ad50" font-family="Arial,Helvetica,sans-serif" font-size="14" font-weight="750">SYSTEM MAP</text>
<text x="68" y="250" fill="#f3f6ff" font-family="Arial,Helvetica,sans-serif" font-size="38" font-weight="750">Delivery path</text>
<text x="68" y="298" fill="#aab8d0" font-family="Arial,Helvetica,sans-serif" font-size="18" font-weight="500">Follow a request through its trust and service boundaries.</text>
<rect x="118" y="364" width="268" height="114" rx="18" fill="#111b30" stroke="#293955"/><circle cx="148" cy="395" r="15" fill="#e8ad50" fill-opacity=".18"/><text x="143" y="401" fill="#e8ad50" font-family="Arial,Helvetica,sans-serif" font-size="15" font-weight="700">1</text><text x="176" y="392" fill="#f3f6ff" font-family="Arial,Helvetica,sans-serif" font-size="19" font-weight="650">Service and</text><text x="176" y="418" fill="#f3f6ff" font-family="Arial,Helvetica,sans-serif" font-size="19" font-weight="650">environment</text><path d="M386 421 C403 421, 403 421, 420 421" fill="none" stroke="#e8ad50" stroke-width="3" stroke-opacity=".8" marker-end="url(#arrow)"/><rect x="430" y="364" width="268" height="114" rx="18" fill="#111b30" stroke="#293955"/><circle cx="460" cy="395" r="15" fill="#e8ad50" fill-opacity=".18"/><text x="455" y="401" fill="#e8ad50" font-family="Arial,Helvetica,sans-serif" font-size="15" font-weight="700">2</text><text x="488" y="392" fill="#f3f6ff" font-family="Arial,Helvetica,sans-serif" font-size="19" font-weight="650">pipeline input</text><path d="M698 421 C715 421, 715 421, 732 421" fill="none" stroke="#e8ad50" stroke-width="3" stroke-opacity=".8" marker-end="url(#arrow)"/><rect x="742" y="364" width="268" height="114" rx="18" fill="#111b30" stroke="#293955"/><circle cx="772" cy="395" r="15" fill="#e8ad50" fill-opacity=".18"/><text x="767" y="401" fill="#e8ad50" font-family="Arial,Helvetica,sans-serif" font-size="15" font-weight="700">3</text><text x="800" y="392" fill="#f3f6ff" font-family="Arial,Helvetica,sans-serif" font-size="19" font-weight="650">gated stage</text><path d="M1010 421 C1027 421, 1027 421, 1044 421" fill="none" stroke="#e8ad50" stroke-width="3" stroke-opacity=".8" marker-end="url(#arrow)"/><rect x="1054" y="364" width="268" height="114" rx="18" fill="#111b30" stroke="#293955"/><circle cx="1084" cy="395" r="15" fill="#e8ad50" fill-opacity=".18"/><text x="1079" y="401" fill="#e8ad50" font-family="Arial,Helvetica,sans-serif" font-size="15" font-weight="700">4</text><text x="1112" y="392" fill="#f3f6ff" font-family="Arial,Helvetica,sans-serif" font-size="19" font-weight="650">deployment and</text><text x="1112" y="418" fill="#f3f6ff" font-family="Arial,Helvetica,sans-serif" font-size="19" font-weight="650">health check</text>
<rect x="64" y="730" width="1312" height="106" rx="20" fill="#111b30" stroke="#293955"/>
<rect x="86" y="754" width="7" height="56" rx="4" fill="#e8ad50" stroke="none"/>
<text x="116" y="773" fill="#e8ad50" font-family="Arial,Helvetica,sans-serif" font-size="13" font-weight="750">PRODUCTION CHECK</text>
<text x="116" y="805" fill="#f3f6ff" font-family="Arial,Helvetica,sans-serif" font-size="18" font-weight="550">Model service, environment, and infrastructure ownership explicitly.</text>
<text x="68" y="872" fill="#aab8d0" font-family="Arial,Helvetica,sans-serif" font-size="12" font-weight="600">DEVSECOPS STUDY NOTES   •   ORIGINAL LEARNING GRAPHIC</text>
<text x="1160" y="872" fill="#aab8d0" font-family="Arial,Helvetica,sans-serif" font-size="12" font-weight="600">Harness</text>
</svg>